<mxfile host="app.diagrams.net" modified="2021-03-14T14:14:27.888Z" agent="5.0 (Windows NT 10.0; Win64; x64) AppleWebKit/537.36 (KHTML, like Gecko) Chrome/89.0.4389.82 Safari/537.36" etag="csQEUsZVW680VbmdVCoc" version="14.4.8" type="github" pages="2">
  <diagram id="mk-3K4lGDOuemRYSqLr1" name="teleportkapu parjat mar kirakta">
    <mxGraphModel dx="1117" dy="624" grid="1" gridSize="10" guides="1" tooltips="1" connect="1" arrows="1" fold="1" page="1" pageScale="1" pageWidth="827" pageHeight="1169" math="0" shadow="0">
      <root>
        <mxCell id="0" />
        <mxCell id="1" parent="0" />
        <mxCell id="XogDKmS76nvP2jgRzE2d-1" value="Telepes meghal" style="shape=umlFrame;whiteSpace=wrap;html=1;" vertex="1" parent="1">
          <mxGeometry x="50" y="30" width="1110" height="650" as="geometry" />
        </mxCell>
        <mxCell id="XogDKmS76nvP2jgRzE2d-3" value="t: Telepes" style="shape=umlLifeline;perimeter=lifelinePerimeter;container=1;collapsible=0;recursiveResize=0;rounded=0;shadow=0;strokeWidth=1;" vertex="1" parent="1">
          <mxGeometry x="120" y="80" width="100" height="570" as="geometry" />
        </mxCell>
        <mxCell id="XogDKmS76nvP2jgRzE2d-4" value="" style="points=[];perimeter=orthogonalPerimeter;rounded=0;shadow=0;strokeWidth=1;" vertex="1" parent="XogDKmS76nvP2jgRzE2d-3">
          <mxGeometry x="45" y="70" width="10" height="470" as="geometry" />
        </mxCell>
        <mxCell id="XogDKmS76nvP2jgRzE2d-5" value="a: Aszteroida" style="shape=umlLifeline;perimeter=lifelinePerimeter;container=1;collapsible=0;recursiveResize=0;rounded=0;shadow=0;strokeWidth=1;" vertex="1" parent="1">
          <mxGeometry x="300" y="80" width="100" height="600" as="geometry" />
        </mxCell>
        <mxCell id="XogDKmS76nvP2jgRzE2d-6" value="" style="points=[];perimeter=orthogonalPerimeter;rounded=0;shadow=0;strokeWidth=1;" vertex="1" parent="XogDKmS76nvP2jgRzE2d-5">
          <mxGeometry x="45" y="90" width="10" height="20" as="geometry" />
        </mxCell>
        <mxCell id="XogDKmS76nvP2jgRzE2d-7" value="" style="verticalAlign=bottom;endArrow=open;dashed=1;endSize=8;exitX=0;exitY=0.95;shadow=0;strokeWidth=1;" edge="1" parent="1" source="XogDKmS76nvP2jgRzE2d-6" target="XogDKmS76nvP2jgRzE2d-4">
          <mxGeometry relative="1" as="geometry">
            <mxPoint x="275" y="236" as="targetPoint" />
          </mxGeometry>
        </mxCell>
        <mxCell id="XogDKmS76nvP2jgRzE2d-8" value="2 : HajoElhagy(t)" style="verticalAlign=bottom;endArrow=block;entryX=0;entryY=0;shadow=0;strokeWidth=1;" edge="1" parent="1" source="XogDKmS76nvP2jgRzE2d-4" target="XogDKmS76nvP2jgRzE2d-6">
          <mxGeometry relative="1" as="geometry">
            <mxPoint x="275" y="160" as="sourcePoint" />
          </mxGeometry>
        </mxCell>
        <mxCell id="XogDKmS76nvP2jgRzE2d-9" value="p: Palya" style="shape=umlLifeline;perimeter=lifelinePerimeter;whiteSpace=wrap;html=1;container=1;collapsible=0;recursiveResize=0;outlineConnect=0;" vertex="1" parent="1">
          <mxGeometry x="440" y="80" width="100" height="600" as="geometry" />
        </mxCell>
        <mxCell id="XogDKmS76nvP2jgRzE2d-10" value="" style="html=1;points=[];perimeter=orthogonalPerimeter;" vertex="1" parent="XogDKmS76nvP2jgRzE2d-9">
          <mxGeometry x="45" y="140" width="10" height="40" as="geometry" />
        </mxCell>
        <mxCell id="XogDKmS76nvP2jgRzE2d-11" value="v: Vas" style="shape=umlLifeline;perimeter=lifelinePerimeter;whiteSpace=wrap;html=1;container=1;collapsible=0;recursiveResize=0;outlineConnect=0;" vertex="1" parent="1">
          <mxGeometry x="590" y="80" width="100" height="280" as="geometry" />
        </mxCell>
        <mxCell id="XogDKmS76nvP2jgRzE2d-12" value="" style="html=1;points=[];perimeter=orthogonalPerimeter;" vertex="1" parent="XogDKmS76nvP2jgRzE2d-11">
          <mxGeometry x="45" y="220" width="10" height="30" as="geometry" />
        </mxCell>
        <mxCell id="XogDKmS76nvP2jgRzE2d-13" value="3 : RemoveJatekosVezerli(t)" style="html=1;verticalAlign=bottom;endArrow=block;entryX=0;entryY=0;" edge="1" parent="1" source="XogDKmS76nvP2jgRzE2d-4" target="XogDKmS76nvP2jgRzE2d-10">
          <mxGeometry relative="1" as="geometry">
            <mxPoint x="410" y="210" as="sourcePoint" />
          </mxGeometry>
        </mxCell>
        <mxCell id="XogDKmS76nvP2jgRzE2d-14" value="" style="html=1;verticalAlign=bottom;endArrow=open;dashed=1;endSize=8;exitX=0;exitY=0.95;" edge="1" parent="1" source="XogDKmS76nvP2jgRzE2d-10" target="XogDKmS76nvP2jgRzE2d-4">
          <mxGeometry relative="1" as="geometry">
            <mxPoint x="410" y="286" as="targetPoint" />
          </mxGeometry>
        </mxCell>
        <mxCell id="XogDKmS76nvP2jgRzE2d-16" value="4 : Megsemmisul()" style="html=1;verticalAlign=bottom;endArrow=block;entryX=0;entryY=0;" edge="1" parent="1" source="XogDKmS76nvP2jgRzE2d-4" target="XogDKmS76nvP2jgRzE2d-12">
          <mxGeometry relative="1" as="geometry">
            <mxPoint x="560" y="320" as="sourcePoint" />
          </mxGeometry>
        </mxCell>
        <mxCell id="XogDKmS76nvP2jgRzE2d-17" value="" style="html=1;verticalAlign=bottom;endArrow=open;dashed=1;endSize=8;exitX=0;exitY=0.95;" edge="1" parent="1" source="XogDKmS76nvP2jgRzE2d-12" target="XogDKmS76nvP2jgRzE2d-4">
          <mxGeometry relative="1" as="geometry">
            <mxPoint x="560" y="396" as="targetPoint" />
          </mxGeometry>
        </mxCell>
        <mxCell id="XogDKmS76nvP2jgRzE2d-18" value="" style="shape=umlDestroy;whiteSpace=wrap;html=1;strokeWidth=3;" vertex="1" parent="1">
          <mxGeometry x="625" y="350" width="30" height="30" as="geometry" />
        </mxCell>
        <mxCell id="XogDKmS76nvP2jgRzE2d-19" value="" style="html=1;verticalAlign=bottom;endArrow=open;dashed=1;endSize=8;exitX=-0.1;exitY=0.984;exitDx=0;exitDy=0;exitPerimeter=0;" edge="1" parent="1" source="XogDKmS76nvP2jgRzE2d-4">
          <mxGeometry relative="1" as="geometry">
            <mxPoint x="460" y="250" as="sourcePoint" />
            <mxPoint x="50" y="612" as="targetPoint" />
            <mxPoint as="offset" />
          </mxGeometry>
        </mxCell>
        <mxCell id="XogDKmS76nvP2jgRzE2d-20" value="" style="shape=umlDestroy;whiteSpace=wrap;html=1;strokeWidth=3;" vertex="1" parent="1">
          <mxGeometry x="155" y="640" width="30" height="30" as="geometry" />
        </mxCell>
        <mxCell id="XogDKmS76nvP2jgRzE2d-21" value="1 : Meghal()" style="verticalAlign=bottom;startArrow=none;endArrow=block;startSize=8;shadow=0;strokeWidth=1;startFill=0;exitX=-0.001;exitY=0.2;exitDx=0;exitDy=0;exitPerimeter=0;" edge="1" parent="1" source="XogDKmS76nvP2jgRzE2d-1" target="XogDKmS76nvP2jgRzE2d-4">
          <mxGeometry relative="1" as="geometry">
            <mxPoint x="60" y="160" as="sourcePoint" />
          </mxGeometry>
        </mxCell>
        <mxCell id="XogDKmS76nvP2jgRzE2d-24" value="tp: TeleportKapu" style="shape=umlLifeline;perimeter=lifelinePerimeter;whiteSpace=wrap;html=1;container=1;collapsible=0;recursiveResize=0;outlineConnect=0;" vertex="1" parent="1">
          <mxGeometry x="727" y="80" width="100" height="570" as="geometry" />
        </mxCell>
        <mxCell id="XogDKmS76nvP2jgRzE2d-25" value="" style="html=1;points=[];perimeter=orthogonalPerimeter;" vertex="1" parent="XogDKmS76nvP2jgRzE2d-24">
          <mxGeometry x="45" y="330" width="10" height="190" as="geometry" />
        </mxCell>
        <mxCell id="XogDKmS76nvP2jgRzE2d-27" value="" style="html=1;points=[];perimeter=orthogonalPerimeter;" vertex="1" parent="XogDKmS76nvP2jgRzE2d-24">
          <mxGeometry x="55" y="360" width="10" height="30" as="geometry" />
        </mxCell>
        <mxCell id="XogDKmS76nvP2jgRzE2d-28" value="6. Elront()" style="edgeStyle=orthogonalEdgeStyle;html=1;align=left;spacingLeft=2;endArrow=block;rounded=0;entryX=1;entryY=0;" edge="1" parent="XogDKmS76nvP2jgRzE2d-24" target="XogDKmS76nvP2jgRzE2d-27">
          <mxGeometry relative="1" as="geometry">
            <mxPoint x="50" y="340" as="sourcePoint" />
            <Array as="points">
              <mxPoint x="85" y="340" />
            </Array>
          </mxGeometry>
        </mxCell>
        <mxCell id="XogDKmS76nvP2jgRzE2d-29" value="" style="shape=umlDestroy;whiteSpace=wrap;html=1;strokeWidth=3;" vertex="1" parent="XogDKmS76nvP2jgRzE2d-24">
          <mxGeometry x="35" y="550" width="30" height="30" as="geometry" />
        </mxCell>
        <mxCell id="XogDKmS76nvP2jgRzE2d-30" value="par: TeleportKapu" style="shape=umlLifeline;perimeter=lifelinePerimeter;whiteSpace=wrap;html=1;container=1;collapsible=0;recursiveResize=0;outlineConnect=0;" vertex="1" parent="1">
          <mxGeometry x="880" y="80" width="100" height="570" as="geometry" />
        </mxCell>
        <mxCell id="XogDKmS76nvP2jgRzE2d-31" value="" style="html=1;points=[];perimeter=orthogonalPerimeter;" vertex="1" parent="XogDKmS76nvP2jgRzE2d-30">
          <mxGeometry x="45" y="440" width="10" height="60" as="geometry" />
        </mxCell>
        <mxCell id="XogDKmS76nvP2jgRzE2d-32" value="" style="html=1;points=[];perimeter=orthogonalPerimeter;" vertex="1" parent="XogDKmS76nvP2jgRzE2d-30">
          <mxGeometry x="45" y="400" width="10" height="20" as="geometry" />
        </mxCell>
        <mxCell id="XogDKmS76nvP2jgRzE2d-45" value="" style="shape=umlDestroy;whiteSpace=wrap;html=1;strokeWidth=3;" vertex="1" parent="XogDKmS76nvP2jgRzE2d-30">
          <mxGeometry x="35" y="550" width="30" height="30" as="geometry" />
        </mxCell>
        <mxCell id="XogDKmS76nvP2jgRzE2d-34" value="" style="html=1;verticalAlign=bottom;endArrow=open;dashed=1;endSize=8;exitX=0;exitY=0.95;" edge="1" parent="1" source="XogDKmS76nvP2jgRzE2d-31" target="XogDKmS76nvP2jgRzE2d-25">
          <mxGeometry x="0.0117" y="82" relative="1" as="geometry">
            <mxPoint x="870" y="569.5" as="targetPoint" />
            <mxPoint as="offset" />
          </mxGeometry>
        </mxCell>
        <mxCell id="XogDKmS76nvP2jgRzE2d-36" value="7. SetPar(null)" style="html=1;verticalAlign=bottom;endArrow=block;entryX=-0.186;entryY=0.091;entryDx=0;entryDy=0;entryPerimeter=0;" edge="1" parent="1" source="XogDKmS76nvP2jgRzE2d-25" target="XogDKmS76nvP2jgRzE2d-32">
          <mxGeometry x="0.137" y="3" relative="1" as="geometry">
            <mxPoint x="870" y="504.49" as="sourcePoint" />
            <mxPoint x="930" y="500" as="targetPoint" />
            <mxPoint as="offset" />
          </mxGeometry>
        </mxCell>
        <mxCell id="XogDKmS76nvP2jgRzE2d-37" value="" style="html=1;verticalAlign=bottom;endArrow=open;dashed=1;endSize=8;exitX=0;exitY=0.95;" edge="1" parent="1" source="XogDKmS76nvP2jgRzE2d-32" target="XogDKmS76nvP2jgRzE2d-25">
          <mxGeometry x="0.0117" y="82" relative="1" as="geometry">
            <mxPoint x="870" y="608" as="targetPoint" />
            <mxPoint as="offset" />
          </mxGeometry>
        </mxCell>
        <mxCell id="XogDKmS76nvP2jgRzE2d-38" value="5. Megsemmisul()" style="html=1;verticalAlign=bottom;endArrow=block;entryX=0;entryY=0;" edge="1" parent="1" target="XogDKmS76nvP2jgRzE2d-25" source="XogDKmS76nvP2jgRzE2d-3">
          <mxGeometry x="-0.1111" relative="1" as="geometry">
            <mxPoint x="690" y="410" as="sourcePoint" />
            <mxPoint as="offset" />
          </mxGeometry>
        </mxCell>
        <mxCell id="XogDKmS76nvP2jgRzE2d-26" value="" style="html=1;verticalAlign=bottom;endArrow=open;dashed=1;endSize=8;" edge="1" parent="1">
          <mxGeometry x="1" y="-52" relative="1" as="geometry">
            <mxPoint x="176" y="590" as="targetPoint" />
            <mxPoint x="-15" y="2" as="offset" />
            <mxPoint x="772" y="590" as="sourcePoint" />
          </mxGeometry>
        </mxCell>
        <mxCell id="XogDKmS76nvP2jgRzE2d-39" value="8. RemoveSzomszed(tp)" style="html=1;verticalAlign=bottom;endArrow=block;" edge="1" parent="1">
          <mxGeometry width="80" relative="1" as="geometry">
            <mxPoint x="780" y="520" as="sourcePoint" />
            <mxPoint x="930" y="520" as="targetPoint" />
          </mxGeometry>
        </mxCell>
        <mxCell id="XogDKmS76nvP2jgRzE2d-40" value="a2: Aszteroida" style="shape=umlLifeline;perimeter=lifelinePerimeter;whiteSpace=wrap;html=1;container=1;collapsible=0;recursiveResize=0;outlineConnect=0;" vertex="1" parent="1">
          <mxGeometry x="1030" y="80" width="100" height="600" as="geometry" />
        </mxCell>
        <mxCell id="XogDKmS76nvP2jgRzE2d-41" value="" style="html=1;points=[];perimeter=orthogonalPerimeter;" vertex="1" parent="XogDKmS76nvP2jgRzE2d-40">
          <mxGeometry x="45" y="460" width="10" height="30" as="geometry" />
        </mxCell>
        <mxCell id="XogDKmS76nvP2jgRzE2d-42" value="9. RemoveSzomszed(par)" style="html=1;verticalAlign=bottom;endArrow=block;entryX=0;entryY=0;" edge="1" target="XogDKmS76nvP2jgRzE2d-41" parent="1" source="XogDKmS76nvP2jgRzE2d-30">
          <mxGeometry relative="1" as="geometry">
            <mxPoint x="1005" y="540" as="sourcePoint" />
          </mxGeometry>
        </mxCell>
        <mxCell id="XogDKmS76nvP2jgRzE2d-43" value="" style="html=1;verticalAlign=bottom;endArrow=open;dashed=1;endSize=8;exitX=0;exitY=0.95;" edge="1" source="XogDKmS76nvP2jgRzE2d-41" parent="1" target="XogDKmS76nvP2jgRzE2d-30">
          <mxGeometry relative="1" as="geometry">
            <mxPoint x="1005" y="616" as="targetPoint" />
          </mxGeometry>
        </mxCell>
      </root>
    </mxGraphModel>
  </diagram>
  <diagram id="Yi1u79qIlMPsKl9OzNCr" name="teleportkapu par rakterben">
    <mxGraphModel dx="920" dy="514" grid="1" gridSize="10" guides="1" tooltips="1" connect="1" arrows="1" fold="1" page="1" pageScale="1" pageWidth="827" pageHeight="1169" math="0" shadow="0">
      <root>
        <mxCell id="sfkn89CFHydbVGPqzdLb-0" />
        <mxCell id="sfkn89CFHydbVGPqzdLb-1" parent="sfkn89CFHydbVGPqzdLb-0" />
        <mxCell id="ilstTC6Jepi4XLZj5aJr-0" value="Telepes meghal" style="shape=umlFrame;whiteSpace=wrap;html=1;" vertex="1" parent="sfkn89CFHydbVGPqzdLb-1">
          <mxGeometry x="50" y="30" width="970" height="650" as="geometry" />
        </mxCell>
        <mxCell id="ilstTC6Jepi4XLZj5aJr-1" value="t: Telepes" style="shape=umlLifeline;perimeter=lifelinePerimeter;container=1;collapsible=0;recursiveResize=0;rounded=0;shadow=0;strokeWidth=1;" vertex="1" parent="sfkn89CFHydbVGPqzdLb-1">
          <mxGeometry x="120" y="80" width="100" height="570" as="geometry" />
        </mxCell>
        <mxCell id="ilstTC6Jepi4XLZj5aJr-2" value="" style="points=[];perimeter=orthogonalPerimeter;rounded=0;shadow=0;strokeWidth=1;" vertex="1" parent="ilstTC6Jepi4XLZj5aJr-1">
          <mxGeometry x="45" y="70" width="10" height="480" as="geometry" />
        </mxCell>
        <mxCell id="ilstTC6Jepi4XLZj5aJr-3" value="a: Aszteroida" style="shape=umlLifeline;perimeter=lifelinePerimeter;container=1;collapsible=0;recursiveResize=0;rounded=0;shadow=0;strokeWidth=1;" vertex="1" parent="sfkn89CFHydbVGPqzdLb-1">
          <mxGeometry x="300" y="80" width="100" height="600" as="geometry" />
        </mxCell>
        <mxCell id="ilstTC6Jepi4XLZj5aJr-4" value="" style="points=[];perimeter=orthogonalPerimeter;rounded=0;shadow=0;strokeWidth=1;" vertex="1" parent="ilstTC6Jepi4XLZj5aJr-3">
          <mxGeometry x="45" y="90" width="10" height="20" as="geometry" />
        </mxCell>
        <mxCell id="ilstTC6Jepi4XLZj5aJr-5" value="" style="verticalAlign=bottom;endArrow=open;dashed=1;endSize=8;exitX=0;exitY=0.95;shadow=0;strokeWidth=1;" edge="1" parent="sfkn89CFHydbVGPqzdLb-1" source="ilstTC6Jepi4XLZj5aJr-4" target="ilstTC6Jepi4XLZj5aJr-2">
          <mxGeometry relative="1" as="geometry">
            <mxPoint x="275" y="236" as="targetPoint" />
          </mxGeometry>
        </mxCell>
        <mxCell id="ilstTC6Jepi4XLZj5aJr-6" value="2 : HajoElhagy(t)" style="verticalAlign=bottom;endArrow=block;entryX=0;entryY=0;shadow=0;strokeWidth=1;" edge="1" parent="sfkn89CFHydbVGPqzdLb-1" source="ilstTC6Jepi4XLZj5aJr-2" target="ilstTC6Jepi4XLZj5aJr-4">
          <mxGeometry relative="1" as="geometry">
            <mxPoint x="275" y="160" as="sourcePoint" />
          </mxGeometry>
        </mxCell>
        <mxCell id="ilstTC6Jepi4XLZj5aJr-7" value="p: Palya" style="shape=umlLifeline;perimeter=lifelinePerimeter;whiteSpace=wrap;html=1;container=1;collapsible=0;recursiveResize=0;outlineConnect=0;" vertex="1" parent="sfkn89CFHydbVGPqzdLb-1">
          <mxGeometry x="440" y="80" width="100" height="600" as="geometry" />
        </mxCell>
        <mxCell id="ilstTC6Jepi4XLZj5aJr-8" value="" style="html=1;points=[];perimeter=orthogonalPerimeter;" vertex="1" parent="ilstTC6Jepi4XLZj5aJr-7">
          <mxGeometry x="45" y="140" width="10" height="40" as="geometry" />
        </mxCell>
        <mxCell id="ilstTC6Jepi4XLZj5aJr-9" value="v: Vas" style="shape=umlLifeline;perimeter=lifelinePerimeter;whiteSpace=wrap;html=1;container=1;collapsible=0;recursiveResize=0;outlineConnect=0;" vertex="1" parent="sfkn89CFHydbVGPqzdLb-1">
          <mxGeometry x="590" y="80" width="100" height="280" as="geometry" />
        </mxCell>
        <mxCell id="ilstTC6Jepi4XLZj5aJr-10" value="" style="html=1;points=[];perimeter=orthogonalPerimeter;" vertex="1" parent="ilstTC6Jepi4XLZj5aJr-9">
          <mxGeometry x="45" y="220" width="10" height="30" as="geometry" />
        </mxCell>
        <mxCell id="ilstTC6Jepi4XLZj5aJr-11" value="3 : RemoveJatekosVezerli(t)" style="html=1;verticalAlign=bottom;endArrow=block;entryX=0;entryY=0;" edge="1" parent="sfkn89CFHydbVGPqzdLb-1" source="ilstTC6Jepi4XLZj5aJr-2" target="ilstTC6Jepi4XLZj5aJr-8">
          <mxGeometry relative="1" as="geometry">
            <mxPoint x="410" y="210" as="sourcePoint" />
          </mxGeometry>
        </mxCell>
        <mxCell id="ilstTC6Jepi4XLZj5aJr-12" value="" style="html=1;verticalAlign=bottom;endArrow=open;dashed=1;endSize=8;exitX=0;exitY=0.95;" edge="1" parent="sfkn89CFHydbVGPqzdLb-1" source="ilstTC6Jepi4XLZj5aJr-8" target="ilstTC6Jepi4XLZj5aJr-2">
          <mxGeometry relative="1" as="geometry">
            <mxPoint x="410" y="286" as="targetPoint" />
          </mxGeometry>
        </mxCell>
        <mxCell id="ilstTC6Jepi4XLZj5aJr-13" value="4 : Megsemmisul()" style="html=1;verticalAlign=bottom;endArrow=block;entryX=0;entryY=0;" edge="1" parent="sfkn89CFHydbVGPqzdLb-1" source="ilstTC6Jepi4XLZj5aJr-2" target="ilstTC6Jepi4XLZj5aJr-10">
          <mxGeometry relative="1" as="geometry">
            <mxPoint x="560" y="320" as="sourcePoint" />
          </mxGeometry>
        </mxCell>
        <mxCell id="ilstTC6Jepi4XLZj5aJr-14" value="" style="html=1;verticalAlign=bottom;endArrow=open;dashed=1;endSize=8;exitX=0;exitY=0.95;" edge="1" parent="sfkn89CFHydbVGPqzdLb-1" source="ilstTC6Jepi4XLZj5aJr-10" target="ilstTC6Jepi4XLZj5aJr-2">
          <mxGeometry relative="1" as="geometry">
            <mxPoint x="560" y="396" as="targetPoint" />
          </mxGeometry>
        </mxCell>
        <mxCell id="ilstTC6Jepi4XLZj5aJr-15" value="" style="shape=umlDestroy;whiteSpace=wrap;html=1;strokeWidth=3;" vertex="1" parent="sfkn89CFHydbVGPqzdLb-1">
          <mxGeometry x="625" y="350" width="30" height="30" as="geometry" />
        </mxCell>
        <mxCell id="ilstTC6Jepi4XLZj5aJr-16" value="" style="html=1;verticalAlign=bottom;endArrow=open;dashed=1;endSize=8;exitX=-0.1;exitY=0.984;exitDx=0;exitDy=0;exitPerimeter=0;entryX=-0.003;entryY=0.913;entryDx=0;entryDy=0;entryPerimeter=0;" edge="1" parent="sfkn89CFHydbVGPqzdLb-1" source="ilstTC6Jepi4XLZj5aJr-2" target="ilstTC6Jepi4XLZj5aJr-0">
          <mxGeometry relative="1" as="geometry">
            <mxPoint x="460" y="250" as="sourcePoint" />
            <mxPoint x="50" y="612" as="targetPoint" />
            <mxPoint as="offset" />
          </mxGeometry>
        </mxCell>
        <mxCell id="ilstTC6Jepi4XLZj5aJr-17" value="" style="shape=umlDestroy;whiteSpace=wrap;html=1;strokeWidth=3;" vertex="1" parent="sfkn89CFHydbVGPqzdLb-1">
          <mxGeometry x="155" y="640" width="30" height="30" as="geometry" />
        </mxCell>
        <mxCell id="ilstTC6Jepi4XLZj5aJr-18" value="1 : Meghal()" style="verticalAlign=bottom;startArrow=none;endArrow=block;startSize=8;shadow=0;strokeWidth=1;startFill=0;exitX=-0.001;exitY=0.2;exitDx=0;exitDy=0;exitPerimeter=0;" edge="1" parent="sfkn89CFHydbVGPqzdLb-1" source="ilstTC6Jepi4XLZj5aJr-0" target="ilstTC6Jepi4XLZj5aJr-2">
          <mxGeometry relative="1" as="geometry">
            <mxPoint x="60" y="160" as="sourcePoint" />
          </mxGeometry>
        </mxCell>
        <mxCell id="ilstTC6Jepi4XLZj5aJr-19" value="tp: TeleportKapu" style="shape=umlLifeline;perimeter=lifelinePerimeter;whiteSpace=wrap;html=1;container=1;collapsible=0;recursiveResize=0;outlineConnect=0;" vertex="1" parent="sfkn89CFHydbVGPqzdLb-1">
          <mxGeometry x="727" y="80" width="100" height="460" as="geometry" />
        </mxCell>
        <mxCell id="ilstTC6Jepi4XLZj5aJr-20" value="" style="html=1;points=[];perimeter=orthogonalPerimeter;" vertex="1" parent="ilstTC6Jepi4XLZj5aJr-19">
          <mxGeometry x="45" y="330" width="10" height="110" as="geometry" />
        </mxCell>
        <mxCell id="ilstTC6Jepi4XLZj5aJr-21" value="" style="html=1;points=[];perimeter=orthogonalPerimeter;" vertex="1" parent="ilstTC6Jepi4XLZj5aJr-19">
          <mxGeometry x="55" y="360" width="10" height="30" as="geometry" />
        </mxCell>
        <mxCell id="ilstTC6Jepi4XLZj5aJr-22" value="6. Elront()" style="edgeStyle=orthogonalEdgeStyle;html=1;align=left;spacingLeft=2;endArrow=block;rounded=0;entryX=1;entryY=0;" edge="1" parent="ilstTC6Jepi4XLZj5aJr-19" target="ilstTC6Jepi4XLZj5aJr-21">
          <mxGeometry relative="1" as="geometry">
            <mxPoint x="50" y="340" as="sourcePoint" />
            <Array as="points">
              <mxPoint x="85" y="340" />
            </Array>
          </mxGeometry>
        </mxCell>
        <mxCell id="ilstTC6Jepi4XLZj5aJr-24" value="par: TeleportKapu" style="shape=umlLifeline;perimeter=lifelinePerimeter;whiteSpace=wrap;html=1;container=1;collapsible=0;recursiveResize=0;outlineConnect=0;" vertex="1" parent="sfkn89CFHydbVGPqzdLb-1">
          <mxGeometry x="880" y="80" width="100" height="570" as="geometry" />
        </mxCell>
        <mxCell id="ilstTC6Jepi4XLZj5aJr-26" value="" style="html=1;points=[];perimeter=orthogonalPerimeter;" vertex="1" parent="ilstTC6Jepi4XLZj5aJr-24">
          <mxGeometry x="45" y="400" width="10" height="20" as="geometry" />
        </mxCell>
        <mxCell id="ilstTC6Jepi4XLZj5aJr-27" value="" style="shape=umlDestroy;whiteSpace=wrap;html=1;strokeWidth=3;" vertex="1" parent="ilstTC6Jepi4XLZj5aJr-24">
          <mxGeometry x="35" y="550" width="30" height="30" as="geometry" />
        </mxCell>
        <mxCell id="GRdBjoIcpCXQAaZzT4Li-0" value="" style="html=1;points=[];perimeter=orthogonalPerimeter;" vertex="1" parent="ilstTC6Jepi4XLZj5aJr-24">
          <mxGeometry x="44" y="500" width="10" height="30" as="geometry" />
        </mxCell>
        <mxCell id="ilstTC6Jepi4XLZj5aJr-29" value="7. SetPar(null)" style="html=1;verticalAlign=bottom;endArrow=block;entryX=-0.186;entryY=0.091;entryDx=0;entryDy=0;entryPerimeter=0;" edge="1" parent="sfkn89CFHydbVGPqzdLb-1" source="ilstTC6Jepi4XLZj5aJr-20" target="ilstTC6Jepi4XLZj5aJr-26">
          <mxGeometry x="0.137" y="3" relative="1" as="geometry">
            <mxPoint x="870" y="504.49" as="sourcePoint" />
            <mxPoint x="930" y="500" as="targetPoint" />
            <mxPoint as="offset" />
          </mxGeometry>
        </mxCell>
        <mxCell id="ilstTC6Jepi4XLZj5aJr-30" value="" style="html=1;verticalAlign=bottom;endArrow=open;dashed=1;endSize=8;exitX=0;exitY=0.95;" edge="1" parent="sfkn89CFHydbVGPqzdLb-1" source="ilstTC6Jepi4XLZj5aJr-26" target="ilstTC6Jepi4XLZj5aJr-20">
          <mxGeometry x="0.0117" y="82" relative="1" as="geometry">
            <mxPoint x="870" y="608" as="targetPoint" />
            <mxPoint as="offset" />
          </mxGeometry>
        </mxCell>
        <mxCell id="ilstTC6Jepi4XLZj5aJr-31" value="5. Megsemmisul()" style="html=1;verticalAlign=bottom;endArrow=block;entryX=0;entryY=0;" edge="1" parent="sfkn89CFHydbVGPqzdLb-1" source="ilstTC6Jepi4XLZj5aJr-1" target="ilstTC6Jepi4XLZj5aJr-20">
          <mxGeometry x="-0.1111" relative="1" as="geometry">
            <mxPoint x="690" y="410" as="sourcePoint" />
            <mxPoint as="offset" />
          </mxGeometry>
        </mxCell>
        <mxCell id="ilstTC6Jepi4XLZj5aJr-32" value="" style="html=1;verticalAlign=bottom;endArrow=open;dashed=1;endSize=8;" edge="1" parent="sfkn89CFHydbVGPqzdLb-1">
          <mxGeometry x="1" y="-52" relative="1" as="geometry">
            <mxPoint x="176" y="510" as="targetPoint" />
            <mxPoint x="-15" y="2" as="offset" />
            <mxPoint x="772" y="510" as="sourcePoint" />
          </mxGeometry>
        </mxCell>
        <mxCell id="ilstTC6Jepi4XLZj5aJr-23" value="" style="shape=umlDestroy;whiteSpace=wrap;html=1;strokeWidth=3;" vertex="1" parent="sfkn89CFHydbVGPqzdLb-1">
          <mxGeometry x="762" y="530" width="30" height="30" as="geometry" />
        </mxCell>
        <mxCell id="GRdBjoIcpCXQAaZzT4Li-1" value="8. Megsemmisul()" style="html=1;verticalAlign=bottom;endArrow=block;entryX=0;entryY=0;" edge="1" target="GRdBjoIcpCXQAaZzT4Li-0" parent="sfkn89CFHydbVGPqzdLb-1" source="ilstTC6Jepi4XLZj5aJr-2">
          <mxGeometry relative="1" as="geometry">
            <mxPoint x="854" y="570" as="sourcePoint" />
          </mxGeometry>
        </mxCell>
        <mxCell id="GRdBjoIcpCXQAaZzT4Li-2" value="" style="html=1;verticalAlign=bottom;endArrow=open;dashed=1;endSize=8;exitX=0;exitY=0.95;" edge="1" source="GRdBjoIcpCXQAaZzT4Li-0" parent="sfkn89CFHydbVGPqzdLb-1" target="ilstTC6Jepi4XLZj5aJr-2">
          <mxGeometry relative="1" as="geometry">
            <mxPoint x="854" y="646" as="targetPoint" />
          </mxGeometry>
        </mxCell>
      </root>
    </mxGraphModel>
  </diagram>
</mxfile>
